<svg width="2048" height="372" fill="none" xmlns="http://www.w3.org/2000/svg"><path d="M619.688 291.844c-4.5-.563-16.079-.844-34.735-.844h-4.5V135.469h-27.844c-8.25 0-13.125.422-14.625 1.265-1.5.844-2.672 1.594-3.515 2.25l-.422-.14v-36l.422-.422c3.093 1.031 11.437 1.547 25.031 1.547h88.172c8.25 0 13.125-.422 14.625-1.266 1.5-.844 2.672-1.594 3.515-2.25l.422.141v36l-.422.422c-3.093-1.032-11.437-1.547-25.031-1.547h-21.093v156.375zm166.05-73.547c-2.813.187-5.813.281-9 .281-3.188 0-7.922-.234-14.204-.703V291h-37.265V102.984c13.125-1.687 29.25-2.531 48.375-2.531 26.062 0 45.469 4.828 58.219 14.485 12.843 9.562 19.265 24.374 19.265 44.437 0 15.563-5.859 28.875-17.578 39.937-3.844 3.563-8.25 6.657-13.219 9.282l28.688 60.468c5.625 12.469 9.937 19.876 12.937 22.219l-.703.703c-9.094-1.5-23.39-1.453-42.89.141l-32.625-73.828zm-9.422-84.656c-4.782 0-9.375.234-13.782.703v53.718c4.594.657 9.985.985 16.172.985 6.188 0 11.391-.516 15.61-1.547 4.218-1.125 7.875-2.812 10.968-5.062 6.657-4.969 9.985-12.422 9.985-22.36 0-9.937-3.469-16.922-10.406-20.953-6.469-3.656-15.985-5.484-28.547-5.484zm150.018-30.235c9.375.375 15.047.563 17.016.563h10.125c4.969 0 8.953-.375 11.953-1.125L965.288 291h-38.954V103.406zm238.756 173.953c-6.85 5.438-15.75 9.657-26.72 12.657-10.97 3-24.47 4.5-40.5 4.5-15.94 0-32.91-1.454-50.91-4.36V104.812c18.19-2.906 33.94-4.359 47.25-4.359 13.41 0 24.38 1.266 32.91 3.797 8.62 2.531 15.65 5.953 21.09 10.266 10.69 8.343 16.03 19.172 16.03 32.484 0 13.219-4.82 24.188-14.48 32.906 11.44 3.563 20.3 10.313 26.58 20.25 5.72 8.906 8.58 18.797 8.58 29.672 0 10.781-1.6 20.016-4.79 27.703-3.09 7.688-8.11 14.297-15.04 19.828zm-80.86-102.656c3.94.656 8.86.985 14.76.985 5.91 0 10.74-.75 14.49-2.25 3.84-1.594 6.79-3.563 8.86-5.907 3.37-3.843 5.06-9.187 5.06-16.031 0-14.344-8.44-21.516-25.31-21.516-7.13 0-13.08.282-17.86.844v43.875zm20.81 30.094c-7.87 0-14.81.515-20.81 1.547v55.265c6.56 1.688 13.45 2.532 20.67 2.532 7.22 0 13.55-.844 18.98-2.532 5.54-1.781 10.18-4.171 13.93-7.171 7.59-6.188 11.39-14.063 11.39-23.626 0-17.343-14.72-26.015-44.16-26.015zm143.55-101.391c9.38.375 15.05.563 17.02.563h10.12c4.97 0 8.95-.375 11.95-1.125L1287.54 291h-38.95V103.406zm219.21 106.735c-4.5-.469-10.32-.703-17.44-.703h-42.61V291h-38.53V102.984c2.53.188 5.44.328 8.72.422l10.4.282c7.13.187 14.54.281 22.22.281 23.06 0 45.1-.375 66.1-1.125-1.04 8.25-1.55 19.265-1.55 33.047 0 1.5.09 2.625.28 3.375l-.28.422c-4.97-1.407-11.91-2.11-20.81-2.11h-46.55v38.672h41.06c10.31 0 16.5-.281 18.57-.844l.42 34.735zm78.3-106.735c9.37.375 15.04.563 17.01.563h10.13c4.97 0 8.95-.375 11.95-1.125L1585.05 291h-38.95V103.406zm214.7 153.844c5.82 0 9.85-.562 12.1-1.688l.56.141-1.41 35.297h-105.33V102.984c2.54.188 5.35.328 8.44.422l9.85.282c6.56.187 13.68.281 21.37.281 21.47 0 42.7-.375 63.7-1.125-1.03 8.25-1.54 19.265-1.54 33.047 0 1.5.09 2.625.28 3.375l-.28.422c-4.88-1.407-11.82-2.11-20.82-2.11h-44.29v35.86h33.33c10.31 0 16.5-.282 18.56-.844l.42 34.734c-4.5-.469-10.31-.703-17.44-.703h-34.87v50.625h57.37zm124.57 37.266c-15.19 0-29.49-1.219-42.89-3.657V102.703c12.37-1.5 26.72-2.25 43.03-2.25 16.41 0 31.22 2.25 44.44 6.75 13.31 4.406 24.42 10.734 33.33 18.985 18 16.5 27 39.609 27 69.328 0 33.281-10.04 58.546-30.1 75.796-18 15.469-42.94 23.204-74.81 23.204zm-6.33-34.313a100.487 100.487 0 0018.28 1.688c6.1 0 12.66-1.172 19.69-3.516 7.03-2.437 13.12-6.187 18.28-11.25 11.06-10.687 16.59-26.25 16.59-46.687 0-33.563-12.23-54.188-36.7-61.876-8.06-2.531-17.39-3.796-27.98-3.796h-3.8c-1.41 0-2.86.046-4.36.14v125.297z" fill="#000"/><path fill-rule="evenodd" clip-rule="evenodd" d="M13.823.034L13.77 0C-6.747 31.592-.005 73.027 28.117 96.653l5.894 3.828 33.312-21.634 13.4 20.633-24.127 15.668 14.61 9.488 34.897-22.663 13.399 20.633-25.71 16.697 47.572 30.894 67.183-43.63L13.787.089l.036-.055zm15.084 272.527C-1.42 295.76-9.229 338.775 11.916 371.335l197.001-127.934-67.553-43.87-46.246 30.033 24.389 15.839-13.399 20.633-33.576-21.805-17.118 11.116 25.222 16.38-13.4 20.633-34.407-22.345-3.922 2.546zm133.012 30.924l69.76-45.302 67.756 44.001-69.76 45.303-67.756-44.002zm250.324-74.305l-.196-.127-.257.167-67.756-44.002.257-.167-.149-.096 67.756-44.002.149.097.102-.066 67.756 44.002-.101.066.196.127-67.757 44.001zm-22.856-102.978l-.101.066.027.018-67.757 44.002-.027-.018-.257.167-67.553-43.87 68.114-44.234 67.554 43.869zM224.302 19.126l74.845 48.605-67.757 44.002-74.845-48.605 67.757-44.002zm-60.353 165.738l67.581 43.887 67.184-43.629-67.581-43.888-67.184 43.63zm90.166 58.555l67.184-43.63 68.102 44.226-67.184 43.629-68.102-44.225z" fill="url(#paint0_linear)"/><defs><linearGradient id="paint0_linear" x1=".102" y1="185.62" x2="480.086" y2="185.62" gradientUnits="userSpaceOnUse"><stop stop-color="#76B4ED"/><stop offset="1" stop-color="#73FFE1"/></linearGradient></defs></svg>